<?xml version="1.0" encoding="UTF-8" standalone="no"?><!DOCTYPE svg PUBLIC "-//W3C//DTD SVG 1.1//EN" "http://www.w3.org/Graphics/SVG/1.1/DTD/svg11.dtd"><svg width="100%" height="100%" viewBox="0 0 612 1300" version="1.1" xmlns="http://www.w3.org/2000/svg" xmlns:xlink="http://www.w3.org/1999/xlink" xml:space="preserve" style="fill-rule:evenodd;clip-rule:evenodd;stroke-linecap:round;stroke-linejoin:round;stroke-miterlimit:1.5;"><g id="Ludos"><g id="thing.-6"><path d="M286.185,897.348c4.329,0.008 7.836,3.529 7.828,7.858c-0.008,4.329 -3.529,7.836 -7.858,7.828c-4.329,-0.008 -7.836,-3.529 -7.828,-7.858c0.008,-4.329 3.529,-7.837 7.858,-7.828Z" style="fill:#cdcdcd;stroke:#cdcdcd;stroke-width:1px;"/><path d="M299.544,981.649l-14.52,1.149l-1.913,-70.359l7.26,-0.574l9.173,69.784Z" style="fill:#cdcdcd;stroke:#cdcdcd;stroke-width:1px;"/></g><g id="thing.-5"><path d="M245.804,888.895c4.319,0.283 7.596,4.019 7.314,8.339c-0.283,4.319 -4.019,7.596 -8.339,7.314c-4.319,-0.283 -7.597,-4.019 -7.314,-8.339c0.283,-4.319 4.019,-7.597 8.339,-7.314Z" style="fill:#cdcdcd;stroke:#cdcdcd;stroke-width:1px;"/><path d="M253.79,973.874l-14.563,0.225l2.552,-70.338l7.282,-0.113l4.729,70.226Z" style="fill:#cdcdcd;stroke:#cdcdcd;stroke-width:1px;"/></g><rect id="stem" x="146.476" y="835.656" width="93.709" height="309.745" style="fill:url(#_Linear1);"/><g id="thing.-4"><path d="M169.619,914.262c4.325,-0.184 7.986,3.178 8.17,7.503c0.184,4.325 -3.178,7.985 -7.503,8.17c-4.325,0.184 -7.985,-3.178 -8.169,-7.503c-0.185,-4.325 3.177,-7.986 7.502,-8.17Z" style="fill:#cdcdcd;stroke:#cdcdcd;stroke-width:1px;"/><path d="M186.71,997.887l-14.455,1.793l-5.036,-70.205l7.227,-0.896l12.264,69.308Z" style="fill:#cdcdcd;stroke:#cdcdcd;stroke-width:1px;"/></g><g id="thing.-3"><path d="M142.739,881.447c4.328,0.089 7.769,3.676 7.679,8.003c-0.09,4.328 -3.676,7.769 -8.004,7.679c-4.328,-0.089 -7.768,-3.676 -7.679,-8.004c0.09,-4.327 3.676,-7.768 8.004,-7.678Z" style="fill:#cdcdcd;stroke:#cdcdcd;stroke-width:1px;"/><path d="M154.509,965.985l-14.539,0.875l-0.588,-70.383l7.269,-0.437l7.858,69.945Z" style="fill:#cdcdcd;stroke:#cdcdcd;stroke-width:1px;"/></g><g id="thing.-2"><path d="M111.308,897.341c4.329,-0.075 7.903,3.378 7.979,7.706c0.075,4.328 -3.378,7.903 -7.706,7.978c-4.328,0.075 -7.903,-3.377 -7.978,-7.706c-0.076,-4.328 3.377,-7.903 7.705,-7.978Z" style="fill:#cdcdcd;stroke:#cdcdcd;stroke-width:1px;"/><path d="M126.29,981.37l-14.495,1.428l-3.269,-70.309l7.248,-0.714l10.516,69.595Z" style="fill:#cdcdcd;stroke:#cdcdcd;stroke-width:1px;"/></g><g id="thing.-1"><path d="M93.396,905.867c4.329,-0.075 7.904,3.378 7.979,7.706c0.075,4.328 -3.378,7.903 -7.706,7.978c-4.328,0.075 -7.903,-3.377 -7.978,-7.705c-0.075,-4.329 3.377,-7.903 7.705,-7.979Z" style="fill:#cdcdcd;stroke:#cdcdcd;stroke-width:1px;"/><path d="M108.378,989.896l-14.495,1.428l-3.269,-70.309l7.248,-0.714l10.516,69.595Z" style="fill:#cdcdcd;stroke:#cdcdcd;stroke-width:1px;"/></g></g><g id="Material"><clipPath id="_clip2"><rect x="17.224" y="946.318" width="385.191" height="352.769"/></clipPath><g clip-path="url(#_clip2)"><path d="M239.499,947.05c1.939,2.448 9.023,2.655 13.299,-0.732c3.221,8.103 6.54,16.383 13.495,25.679c-11.165,24.326 -8.251,61.98 -7.65,73.318c3.492,65.834 -11.982,84.549 -34.811,99.351l-21.662,-16.343c9.294,-47.195 19.948,-82.302 35.495,-109.281c3.178,-14.458 3.165,-41.233 1.834,-71.992Z" style="stroke:#000;stroke-width:1px;"/><path d="M265.817,971.213c-27.598,29.766 -17.521,81.861 -11.222,114.253c3.884,8.425 -35.133,50.268 -36.409,68.209l145.383,65.374c-12.329,-112.391 -26.658,-213.208 -65.468,-253.461c-5.424,3.037 -6.3,3.826 -14.26,0.933c-3.307,-1.202 -12.877,1.598 -18.024,4.692Z" style="fill:url(#_Radial3);stroke:#1a1a1a;stroke-width:1px;"/><path d="M138.625,948.653c6.801,4.763 11.179,2.113 15.281,-2.292c3.309,15.984 7.85,30.985 8.642,44.579c-15.82,29 -12.602,66.419 0,107.987c-28.784,-52.796 -38.958,-103.56 -23.923,-150.274Z" style="stroke:#000;stroke-width:1px;"/><path d="M185.229,978.131c6.425,47.939 7.041,111.662 19.25,160.425c-19.488,-12.152 -35.439,-32.939 -47.896,-62.26c-3.214,-30.88 12.53,-73.639 28.646,-98.165Z" style="fill:url(#_Radial4);stroke:#1a1a1a;stroke-width:1px;"/><path d="M376.1,1260.68l0,-42.847c-137.114,-45.555 -251.027,-124.216 -191.745,-238.956c-6.281,5.073 -11.029,5.323 -14.73,-0.742c-8.154,5.244 -14.985,16.076 -18.096,31.341c-17.615,119.078 83.241,210.668 224.571,251.204Z" style="fill:url(#_Radial5);stroke:#1a1a1a;stroke-width:1px;"/><path d="M60.593,1044.46c4.445,-28.621 15.624,-54.861 31.207,-78.868c3.569,5.405 9.628,2.795 13.574,0c7.113,-0.066 1.1,83.24 -8.225,165.13c-21.379,-22.425 -33.6,-51.154 -36.556,-86.262Z" style="fill:url(#_Radial6);stroke:#1a1a1a;stroke-width:1px;"/><path d="M93.667,1129.97c0.898,-51.826 6.855,-103.832 16.688,-155.977c5.463,3.226 10.855,3.055 16.187,0c19.048,160.973 111.584,248.316 254.173,285.511l21.7,51.072l-109.474,0c-79.795,-43.803 -147.527,-102.401 -199.274,-180.606Z" style="fill:url(#_Radial7);stroke:#1a1a1a;stroke-width:1px;"/><path d="M55.802,1057.31l0,61.965c3.328,66.143 53.402,126.646 128.328,184.151l108.811,0c-122.464,-59.539 -213.84,-167.985 -231.117,-258.968c-3.918,0.789 -5.986,4.962 -6.022,12.852Z" style="fill:url(#_Radial8);stroke:#1a1a1a;stroke-width:1px;"/><path d="M256.801,1305.02c-102.451,-56.565 -175.777,-129.938 -198.573,-232.47l0,40.939c2.326,71.399 54.017,134.159 136.498,191.531l62.075,0Z" style="fill:url(#_Radial9);stroke:#1a1a1a;stroke-width:1px;"/><path d="M68.984,1239.55c-7.678,-40.055 -11.494,-80.155 -13.182,-120.28c2.002,47.595 51.328,123.474 140.86,188.674l-50.186,2.631l-77.492,-71.025Z" style="fill:url(#_Radial10);stroke:#1a1a1a;stroke-width:1px;"/><path d="M55.159,1059.33c0.545,16.231 1.723,31.775 3.976,46.156c-10.241,26.606 10.848,83.173 10.707,133.061c-25.92,-28.469 -49.036,-63.443 -50.605,-100.303c6.084,-28.818 18.689,-54.854 35.922,-78.914Z" style="stroke:#000;stroke-width:1px;"/><path d="M34.1,1303.42c-8.627,-57.848 -14.189,-112.742 -16.876,-164.868c0.091,-17.765 16.488,-46.608 39.615,-89.421l2.61,4.551c-15.666,27.298 -34.91,56.863 -37.96,84.87c2.847,58.142 54.471,112.366 128.042,164.868l-115.431,0Z" style="fill:url(#_Radial11);stroke:#1a1a1a;stroke-width:1px;"/></g></g><g id="Feathers"><path id="feather.-base" d="M106.002,735.352c0.874,34.538 2.452,68.949 7.219,102.783c50.628,18.326 136.092,21.768 164.013,-4.861c5.449,-36.397 3.594,-74.561 0,-110.904l-171.232,12.982Z" style="fill:#2f4521;stroke:#2f4521;stroke-width:0.75px;"/><path id="feather.-10" d="M95.569,656.852c2.13,57.583 4.052,116.113 17.205,123.588c8.931,1.916 14.966,-16.445 20.474,-38.489c6.351,27.754 15.898,46.758 31.854,48.21c14.232,0.172 23.675,-16.407 31.443,-38.847c5.283,21.754 15.155,35.09 30.248,38.847c13.283,1.12 21.816,-21.759 28.086,-56.074c3.812,24.367 9.273,42.747 18.806,46.353c14.262,-0.832 11.379,-55.944 11.041,-102.996l-11.041,-22.905l-178.116,0" style="fill:#186868;stroke:#186868;stroke-width:0.75px;"/><path id="feather.-9" d="M290.335,613.83c3.401,29.337 9.64,62.901 0,72.821c-10.799,4.576 -16.921,-5.199 -20.874,-21.631c-4.147,23.108 -9.674,40.178 -18.796,41.514c-13.921,-1.219 -24.016,-14.883 -30.123,-41.514c-5.587,20.798 -14.188,33.766 -27.485,34.534c-11.706,-1.881 -21.303,-14.281 -29.918,-31.582c-6.331,17.506 -14.77,32.038 -28.886,38.562c-9.215,2.68 -17.459,-12.38 -25.095,-38.562c-1.585,13.013 -4.673,22.623 -11.473,23.832c-11.971,-14.423 -8.978,-72.741 -9.507,-120.728l193.209,19.604l8.948,23.15Z" style="fill:#2f4521;stroke:#2f4521;stroke-width:0.75px;"/><path id="feather.-8" d="M75.704,510.343c4.164,37.57 2.585,79.265 21.298,90.552c2.053,2.303 8.739,-0.426 10.356,-6.598c6.469,14.265 14.507,29.767 26.163,32.995c8.756,2.425 16.357,-6.476 24.86,-12.314c2.024,8.375 15.635,24.806 26.186,26.086c16.297,1.976 24.119,-20.255 33.709,-26.086c8.502,9.148 20.924,20.291 35.309,19.033c13.105,-1.146 16.921,-17.933 23.948,-33.116c-0.805,13.215 2.435,20.834 9.988,22.484c20.888,2.087 25.12,-66.622 29.865,-113.036c-89.841,48.109 -170.169,46.906 -241.682,0Z" style="fill:#186868;stroke:#186868;stroke-width:0.75px;"/><path id="feather.-7" d="M42.192,416.707c5.406,50.115 13.261,96.476 38.872,115.612c2.336,1.929 3.899,-0.011 4.76,-5.474c2.66,20.375 12.768,29.783 28.03,31.603c5.421,-0.069 8.765,-3.561 11.467,-7.966c10.439,13.564 21.002,22.337 31.775,22.876c7.663,0.179 16.252,-10.684 24.952,-22.876c5.653,18.902 14.511,29.744 26.401,32.964c12.516,1.682 25.389,-15.424 38.349,-37.143c6.308,13.797 12.658,20.746 19.049,21.007c9.473,0.632 17.633,-7.734 25.076,-21.007c3.351,6.039 6.282,8.982 9.557,4.179c11.855,-25.702 32.121,-48.168 56.589,-69.02l-39.683,-22.307c-33.897,18.964 -69.544,31.169 -108.177,31.839c-66.967,4.179 -124.297,-16.336 -167.017,-74.287Z" style="fill:#2f4521;stroke:#2f4521;stroke-width:0.75px;"/><path id="feather.-71" d="M33.417,332.375c-9.071,39.48 -10.652,76.516 6.254,107.516c5.093,5.061 7.536,-2.165 8.641,-15.607c-1.172,27.147 5.256,49.164 22.891,63.617c6.653,5.053 15.479,-4.77 24.573,-16.424c6.993,24.841 14.368,41.316 23.51,41.317c10.098,0.327 24.868,-7.608 39.678,-15.614c-1.09,14.342 4.381,27.472 18.766,38.956c12.601,7.479 25.993,-8.809 39.467,-27.571c7.521,11.481 14.874,18.619 22.207,18.022c14.467,-1.626 25.923,-21.33 36.833,-44.318c3.309,15.104 9.891,21.717 19.823,19.636c12.893,-1.454 23.787,-15.665 34.595,-30.428c-5.212,7.887 -9.828,15.919 -7.27,25.703c7.088,9.71 27.682,-8.303 44.96,-25.703c9.637,-9.09 16.92,-20.007 23.35,-31.586l-29.092,-118.751c-42.004,98.954 -95.734,153.664 -166.682,143.416c-53.126,-13.699 -76.246,-54.694 -76.635,-116.366l-85.869,-15.815Z" style="fill:#186868;stroke:#186868;stroke-width:0.75px;"/><path id="feather.-6" d="M52.903,253.277c-20.892,39.269 -31.556,72.819 -25.91,97.248c3.155,3.932 6.397,2.465 9.805,-9.264c-1.193,28.414 -0.365,48.206 5.244,47.601c7.539,2.295 15.564,-8.482 23.674,-21.551c-1.52,26.873 -1.816,50.207 6.133,49.725c8.505,4.201 31.523,-18.613 53.397,-39.296l28.478,-76.651l-100.821,-47.812Z" style="fill:#2f4521;stroke:#2f4521;stroke-width:0.75px;"/><path id="feather.-5" d="M48.532,290.937c8.868,1.533 16.323,-3.219 22.746,-12.568c0.25,8.229 0.008,25.913 11.165,43.15c18.098,1.174 29.242,-7.496 36.205,-22.085c-1.938,9.918 1.694,20.83 12.048,32.941l77.753,-143.896l-77.753,-57.266l-51.798,51.438c-23.835,24.65 -41.392,88.331 -35.59,89.285c5.215,-2.77 2.827,-7.393 5.224,19.001Z" style="fill:#186868;stroke:#186868;stroke-width:0.75px;"/><path id="feather.-4" d="M150.401,102.621c-27.305,19.297 -57.49,39.766 -66.477,63.799c5.384,-2.9 9.256,-7.493 12.882,-12.362c-8.074,10.279 -15.411,19.676 -17.908,29.04c-1.347,5.05 7.165,4.377 17.908,-2.578c-8.532,20.838 -9.205,30.004 -6.404,37.972c2.917,5.911 31.678,-9.615 54.06,-29.685c2.062,18.755 7.859,30.698 18.327,34.122l99.808,-78.905l-81.698,-54.482l-30.498,13.079Z" style="fill:#2f4521;stroke:#2f4521;stroke-width:0.75px;"/><path id="feather.-3" d="M138.506,139.216c6.325,15.908 79.994,-0.413 145.235,-12.7l29.164,-64.584l-77.284,4.281c-42.177,5.394 -103.869,35.924 -101.4,47.292c-0.628,4.274 27.372,1.168 47.519,-3.948c16.241,-4.124 -44.209,11.143 -43.234,29.659Z" style="fill:#186868;stroke:#186868;stroke-width:0.75px;"/><path id="feather.-2" d="M313.751,139.216c-28.545,-7.255 -58.11,-18.582 -91.437,-44.925c-2.64,-14.526 81.247,-8.975 76.627,-9.214c-24.359,-1.263 -45.882,-7.672 -63.55,-18.772c35.858,-17.811 78.878,-5.968 122.374,7.843l45.793,56.542l-89.807,8.526Z" style="fill:#2f4521;stroke:#2f4521;stroke-width:0.75px;"/><path id="feather.-1" d="M425.028,208.216c41.261,-2.777 67.913,-46.434 38.07,-83.714c-27.505,-29.613 -62.516,-48.393 -106.181,-52.253c-2.627,1.429 -2.627,4.254 0,8.474c-9.38,0.604 -13.492,5.018 -13.728,7.092c3.902,15.728 12.377,26.775 26.571,31.968c-30.152,-0.898 -52.239,2.721 -62.323,13.062c22.613,22.347 61.192,54.909 117.591,75.371Z" style="fill:#186868;stroke:#186868;stroke-width:0.75px;"/></g><g id="Beak"><path d="M550.431,447.928c-9.402,-7.139 -17.13,-19.262 -18.609,-42.957l1.905,0c10.167,13.164 16.254,27.353 16.704,42.957Z" style="stroke:#000;stroke-width:0.75px;"/><path d="M352.915,374.382c-5.018,7.255 -5.566,14.337 0,21.181c10.57,2.819 20.499,2.431 29.898,0c30.304,8.883 86.497,17.018 106.143,-3.087l13.365,-7.799c-24.005,-15.725 -63.132,-7.076 -114.01,-4.893c-11.471,-6.085 -23.229,-6.595 -35.396,-5.402Z" style="stroke:#000;stroke-width:0.75px;"/><path d="M352.544,373.738c-1.608,-0.502 -2.112,-1.984 -1.995,-4.246c7.877,-14.874 15.109,-31.988 22.188,-49.636c6.61,-19.862 15.397,-38.544 25.424,-56.551c7.39,-14.482 13.453,-28.76 18.262,-42.846c2.312,-5.485 5.649,-9.532 9.66,-12.629c14.97,-4.832 30.886,-17.907 47.662,-38.489c96.824,36.868 137.508,204.575 76.684,278.587c-8.91,-48.423 -51.464,-78.162 -113.85,-68.78c-25.303,5.071 -82.773,-0.582 -84.035,-5.41Z" style="fill:#3d3a41;stroke:#3d3a41;stroke-width:0.75px;"/><path d="M356.432,393.361c1.541,17.76 11.072,34.425 24.971,47.93c11.73,3.489 49.469,-5.474 55.522,-9.441c21.986,-10.49 39.644,-23.161 52.031,-38.489c-34.995,22.192 -85.116,-6.108 -132.524,0Z" style="fill:#3d3a41;stroke:#3d3a41;stroke-width:0.75px;"/></g><g id="Eyebags"><path id="white.-eyebag" d="M424.255,209.121c2.153,-4.925 -2.367,-8.266 -4.241,-10.303c-30.826,-33.493 -104.461,-55.787 -145.838,-61.809c-61.619,-24.308 -112.75,42.001 -148.324,168.054c-25.64,98.719 -10.6,159.539 49.113,178.74c68.309,17.659 128.777,-21.404 180.48,-123.875l68.81,-150.807Z" style="fill:#f7f5f1;stroke:#f7f5f1;stroke-width:0.75px;"/><path id="blue.-circle" d="M162.072,222.193c23.289,-128.238 201.297,-131.532 225.329,14.217c-38.156,130.055 -206.592,175.994 -225.329,-14.217Zm14.087,0.361c57.264,-124.286 174.011,-85.924 188.55,13.959c2.507,61.131 -145.341,151.906 -188.55,-13.959Z" style="fill:#1e3d58;stroke:#1e3d58;stroke-width:0.75px;"/><path id="lower_blue" d="M129.074,305.063c26.128,142.406 140.631,124.596 231.831,22.528c-83.016,164.606 -238.207,141.338 -231.831,-22.528Z" style="fill:#1e3d58;stroke:#1e3d58;stroke-width:0.75px;"/></g><g id="Eye"><path d="M183.478,228.104c12.453,-9.112 19.505,-57.625 70.319,-69.054c62.956,-8.715 94.276,33.411 101.648,79.069l-6.502,4.302c-11.025,42.047 -52.664,69.633 -95.146,62.642c-49.542,-15.844 -55.89,-51.623 -70.319,-76.959Z" style="fill:#741d91;stroke:#741d91;stroke-width:0.75px;"/><path d="M199.078,227.74c31.57,-89.556 128.424,-67.111 149.865,10.023c-37.276,75.408 -126.47,79.595 -149.865,-10.023Z" style="stroke:#000;stroke-width:0.75px;"/><path d="M292.242,210.96c2.321,2.073 3.038,5.062 1.6,6.672c-1.437,1.61 -4.489,1.234 -6.81,-0.839c-2.321,-2.073 -3.038,-5.063 -1.6,-6.673c1.438,-1.61 4.489,-1.233 6.81,0.84Z" style="fill:#fff;stroke:#fff;stroke-width:1px;"/></g><defs><linearGradient id="_Linear1" x1="0" y1="0" x2="1" y2="0" gradientUnits="userSpaceOnUse" gradientTransform="matrix(93.7092,4.21581e-16,-2.50086e-15,309.745,146.476,990.528)"><stop offset="0" style="stop-color:#292929;stop-opacity:1"/><stop offset="1" style="stop-color:#000;stop-opacity:1"/></linearGradient><radialGradient id="_Radial3" cx="0" cy="0" r="1" gradientUnits="userSpaceOnUse" gradientTransform="matrix(123.79,0,0,250.493,218.186,1090.83)"><stop offset="0" style="stop-color:#404040;stop-opacity:1"/><stop offset="0.16" style="stop-color:#2f2f2f;stop-opacity:1"/><stop offset="0.35" style="stop-color:#202020;stop-opacity:1"/><stop offset="1" style="stop-color:#1a1a1a;stop-opacity:1"/></radialGradient><radialGradient id="_Radial4" cx="0" cy="0" r="1" gradientUnits="userSpaceOnUse" gradientTransform="matrix(48.6142,0,0,145.512,155.865,1065.8)"><stop offset="0" style="stop-color:#404040;stop-opacity:1"/><stop offset="0.16" style="stop-color:#2f2f2f;stop-opacity:1"/><stop offset="0.35" style="stop-color:#202020;stop-opacity:1"/><stop offset="1" style="stop-color:#1a1a1a;stop-opacity:1"/></radialGradient><radialGradient id="_Radial5" cx="0" cy="0" r="1" gradientUnits="userSpaceOnUse" gradientTransform="matrix(226.569,0,0,282.805,149.531,1119.27)"><stop offset="0" style="stop-color:#404040;stop-opacity:1"/><stop offset="0.16" style="stop-color:#2f2f2f;stop-opacity:1"/><stop offset="0.35" style="stop-color:#202020;stop-opacity:1"/><stop offset="1" style="stop-color:#1a1a1a;stop-opacity:1"/></radialGradient><radialGradient id="_Radial6" cx="0" cy="0" r="1" gradientUnits="userSpaceOnUse" gradientTransform="matrix(50.8436,0,0,165.13,60.593,1048.15)"><stop offset="0" style="stop-color:#404040;stop-opacity:1"/><stop offset="0.16" style="stop-color:#2f2f2f;stop-opacity:1"/><stop offset="0.35" style="stop-color:#202020;stop-opacity:1"/><stop offset="1" style="stop-color:#1a1a1a;stop-opacity:1"/></radialGradient><radialGradient id="_Radial7" cx="0" cy="0" r="1" gradientUnits="userSpaceOnUse" gradientTransform="matrix(308.747,0,0,336.582,93.6672,1142.29)"><stop offset="0" style="stop-color:#404040;stop-opacity:1"/><stop offset="0.16" style="stop-color:#2f2f2f;stop-opacity:1"/><stop offset="0.35" style="stop-color:#202020;stop-opacity:1"/><stop offset="1" style="stop-color:#1a1a1a;stop-opacity:1"/></radialGradient><radialGradient id="_Radial8" cx="0" cy="0" r="1" gradientUnits="userSpaceOnUse" gradientTransform="matrix(237.138,0,0,258.968,55.8024,1173.94)"><stop offset="0" style="stop-color:#404040;stop-opacity:1"/><stop offset="0.16" style="stop-color:#2f2f2f;stop-opacity:1"/><stop offset="0.35" style="stop-color:#202020;stop-opacity:1"/><stop offset="1" style="stop-color:#1a1a1a;stop-opacity:1"/></radialGradient><radialGradient id="_Radial9" cx="0" cy="0" r="1" gradientUnits="userSpaceOnUse" gradientTransform="matrix(198.573,0,0,232.47,58.228,1188.78)"><stop offset="0" style="stop-color:#404040;stop-opacity:1"/><stop offset="0.16" style="stop-color:#2f2f2f;stop-opacity:1"/><stop offset="0.35" style="stop-color:#202020;stop-opacity:1"/><stop offset="1" style="stop-color:#1a1a1a;stop-opacity:1"/></radialGradient><radialGradient id="_Radial10" cx="0" cy="0" r="1" gradientUnits="userSpaceOnUse" gradientTransform="matrix(140.86,0,0,191.305,55.8024,1214.93)"><stop offset="0" style="stop-color:#404040;stop-opacity:1"/><stop offset="0.16" style="stop-color:#2f2f2f;stop-opacity:1"/><stop offset="0.35" style="stop-color:#202020;stop-opacity:1"/><stop offset="1" style="stop-color:#1a1a1a;stop-opacity:1"/></radialGradient><radialGradient id="_Radial11" cx="0" cy="0" r="1" gradientUnits="userSpaceOnUse" gradientTransform="matrix(132.307,0,0,254.289,17.2241,1176.28)"><stop offset="0" style="stop-color:#404040;stop-opacity:1"/><stop offset="0.16" style="stop-color:#2f2f2f;stop-opacity:1"/><stop offset="0.35" style="stop-color:#202020;stop-opacity:1"/><stop offset="1" style="stop-color:#1a1a1a;stop-opacity:1"/></radialGradient></defs></svg>